<svg width="34" height="32" viewBox="0 0 34 32" fill="none" xmlns="http://www.w3.org/2000/svg">
<path d="M32.4041 0.518095C30.9811 -0.406731 29.0602 -0.015394 28.0287 1.33646L27.6729 1.79898C27.6017 1.90568 27.4238 1.90568 27.3528 1.79898L26.8903 1.22976C25.7164 -0.264295 23.4752 -0.442158 22.0878 0.945145C20.9494 2.04783 20.8784 3.79102 21.6965 5.10715H23.6885L24.6134 3.54189C24.7201 3.36397 24.9334 3.25727 25.1468 3.25727C25.3602 3.25727 25.5382 3.36397 25.6803 3.54189L27.3878 6.42321L27.9925 5.42717C28.0992 5.24926 28.3126 5.14256 28.5259 5.14256H30.2334C30.5535 5.14256 30.8381 5.42717 30.8381 5.74726C30.8381 6.06736 30.5535 6.35197 30.2334 6.35197H28.8815L27.9567 7.91723C27.85 8.09514 27.6366 8.20184 27.4232 8.20184C27.2098 8.20184 27.0319 8.09514 26.8897 7.91723L25.1823 5.03591L24.5776 6.03194C24.4709 6.20986 24.2575 6.31655 24.0441 6.31655H22.6213L26.5699 11.2256C27.0679 11.8304 27.9927 11.8304 28.4907 11.2256L33.2219 5.28501C34.3606 3.79096 34.0402 1.58533 32.404 0.518082L32.4041 0.518095Z" fill="#00AEEF"/>
<path d="M8.28571 19.1583L5.68896 26.8064L9.17502 26.593L11.3095 20.3323L10.0289 20.0832C9.31725 19.941 8.74802 19.6209 8.28577 19.1583L8.28571 19.1583Z" fill="#00AEEF"/>
<path d="M18.6273 4.08927C18.9933 5.59768 18.067 7.11676 16.5589 7.48278C15.0505 7.84853 13.5311 6.92224 13.1654 5.4141C12.7996 3.90569 13.7257 2.38661 15.2341 2.02059C16.7422 1.65484 18.2615 2.58113 18.6273 4.08927Z" fill="#00AEEF"/>
<path d="M5.65335 14.4983C6.32929 14.8184 7.11189 14.5695 7.43198 13.8936L8.78381 11.2256L10.7046 10.5855L9.1039 16.3482C8.9972 16.775 9.03268 17.2375 9.28181 17.6288C9.53094 18.0201 9.88651 18.269 10.3133 18.3759L15.2224 19.3717L13.5859 23.2848C13.2301 24.1029 13.6214 25.028 14.4397 25.3836C14.7598 25.5257 15.1157 25.5257 15.4358 25.4548C15.9338 25.3481 16.3251 24.9923 16.5384 24.4942L18.9218 18.767C19.0997 18.3403 19.064 17.8065 18.8506 17.4152C18.6372 16.9884 18.2104 16.7038 17.7479 16.5971L14.3328 15.8857L15.6846 12.2572L17.3211 14.3917C17.6412 14.8185 18.1749 14.9964 18.7084 14.8897C18.8151 14.8543 18.9218 14.8185 19.0643 14.7476L21.8744 13.1823C22.5146 12.8265 22.7637 12.0084 22.3724 11.3682C22.0166 10.728 21.1985 10.4788 20.5582 10.8701L18.7796 11.8662L17.3211 9.98083C16.8943 9.41161 16.2896 8.98479 15.6491 8.77142L13.0524 7.8466C12.3053 7.56198 11.4517 7.56198 10.669 7.81111L7.43186 8.87836C7.07603 8.98506 6.82716 9.23418 6.64926 9.5543L5.04855 12.7203C4.72846 13.3599 4.97734 14.1783 5.65326 14.4984L5.65335 14.4983Z" fill="#00AEEF"/>
<path d="M30.91 14.2849C30.8033 13.7868 30.3053 13.5023 29.8073 13.6089L22.8706 15.4943C22.4081 15.6364 22.1235 16.099 22.2304 16.5615L22.4796 17.7354C22.5863 18.1979 23.0488 18.518 23.5111 18.4113L25.4676 18.0555L26.2857 27.2333L1.59829 28.7985C0.744483 28.834 0.0687931 29.5811 0.104239 30.435C0.139722 31.2886 0.851392 32 1.70495 32H28.171C28.6335 32 29.0603 31.8221 29.3449 31.4665C29.665 31.1464 29.8074 30.6839 29.7717 30.2571L28.6333 17.5577L30.5898 17.2018C31.0878 17.1306 31.4079 16.6326 31.3012 16.1346L30.91 14.2849Z" fill="#00AEEF"/>
</svg>
