<svg width="32" height="32" viewBox="0 0 32 32" fill="none" xmlns="http://www.w3.org/2000/svg">
<g clip-path="url(#clip0_362_2941)">
<path d="M21.2526 1.23167C21.2526 0.552038 21.9245 0 22.7552 0C23.5859 0 24.2578 0.552038 24.2578 1.23167V6.62706C24.2578 7.3067 23.5859 7.85874 22.7552 7.85874C21.9245 7.85874 21.2526 7.3067 21.2526 6.62706V1.23167ZM17.2161 27.5134C17.0078 27.5134 17.0078 24.8834 17.2161 24.8834H21.3281C21.5365 24.8834 21.5365 27.5134 21.3281 27.5134H17.2161ZM4.1276 17.9517C3.91927 17.9517 3.91927 15.3217 4.1276 15.3217H8.23958C8.44792 15.3217 8.44792 17.9517 8.23958 17.9517H4.1276ZM10.6719 17.9517C10.4635 17.9517 10.4635 15.3217 10.6719 15.3217H14.7839C14.9922 15.3217 14.9922 17.9517 14.7839 17.9517H10.6719ZM17.2161 17.9517C17.0078 17.9517 17.0078 15.3217 17.2161 15.3217H21.3281C21.5365 15.3217 21.5365 17.9517 21.3281 17.9517H17.2161ZM23.763 15.3217H27.8646C28.0729 15.3217 28.0729 17.9517 27.8646 17.9517H23.763C23.5547 17.9517 23.5547 15.3217 23.763 15.3217ZM4.1276 22.7325C3.91927 22.7325 3.91927 20.1025 4.1276 20.1025H8.23958C8.44792 20.1025 8.44792 22.7325 8.23958 22.7325H4.1276ZM10.6771 22.7325C10.4688 22.7325 10.4688 20.1025 10.6771 20.1025H14.7839C14.9922 20.1025 14.9922 22.7325 14.7839 22.7325H10.6771ZM17.2214 22.7325C17.013 22.7325 17.013 20.1025 17.2214 20.1025H21.3281C21.5365 20.1025 21.5365 22.7325 21.3281 22.7325H17.2214ZM23.7682 22.7325C23.5599 22.7325 23.5599 20.1025 23.7682 20.1025H27.8646C28.0729 20.1025 28.0729 22.7325 27.8646 22.7325H23.7682ZM4.13281 27.5134C3.92448 27.5134 3.92448 24.8834 4.13281 24.8834H8.23958C8.44792 24.8834 8.44792 27.5134 8.23958 27.5134H4.13281ZM10.6771 27.5134C10.4688 27.5134 10.4688 24.8834 10.6771 24.8834H14.7839C14.9922 24.8834 14.9922 27.5134 14.7839 27.5134H10.6771ZM7.71094 1.23167C7.71094 0.552038 8.38281 0 9.21354 0C10.0443 0 10.7161 0.552038 10.7161 1.23167V6.62706C10.7161 7.3067 10.0443 7.85874 9.21354 7.85874C8.38281 7.85874 7.71094 7.3067 7.71094 6.62706V1.23167ZM1.66667 11.3194H30.3307V5.59069C30.3285 5.38883 30.2483 5.19566 30.1068 5.05167C30.0361 4.98068 29.9521 4.92435 29.8596 4.88592C29.7671 4.84749 29.6679 4.82771 29.5677 4.82773H26.8229C26.6019 4.82773 26.3899 4.73994 26.2337 4.58367C26.0774 4.42741 25.9896 4.21546 25.9896 3.99447C25.9896 3.77347 26.0774 3.56153 26.2337 3.40526C26.3899 3.24899 26.6019 3.1612 26.8229 3.1612H29.5703C30.2141 3.16326 30.8309 3.41989 31.2861 3.87506C31.7413 4.33023 31.9979 4.94698 32 5.59069V29.5705C31.9979 30.2142 31.7413 30.831 31.2861 31.2861C30.8309 31.7413 30.2141 31.9979 29.5703 32H2.42969C1.78548 31.9979 1.16828 31.741 0.712999 31.2852C0.257716 30.8295 0.00137322 30.2121 0 29.5679L0 5.59069C0.00206005 4.94698 0.258706 4.33023 0.713915 3.87506C1.16912 3.41989 1.78593 3.16326 2.42969 3.1612H5.36458C5.47402 3.1612 5.58238 3.18275 5.68349 3.22463C5.78459 3.26651 5.87646 3.32788 5.95384 3.40526C6.03122 3.48263 6.0926 3.57449 6.13448 3.67559C6.17636 3.77669 6.19792 3.88504 6.19792 3.99447C6.19792 4.10389 6.17636 4.21225 6.13448 4.31334C6.0926 4.41444 6.03122 4.5063 5.95384 4.58367C5.87646 4.66105 5.78459 4.72243 5.68349 4.7643C5.58238 4.80618 5.47402 4.82773 5.36458 4.82773H2.42969C2.22781 4.82993 2.03463 4.91018 1.89063 5.05167C1.81963 5.12234 1.76329 5.20634 1.72486 5.29884C1.68643 5.39134 1.66665 5.49052 1.66667 5.59069V11.3194ZM30.3333 12.9885H1.66667V29.5679C1.66886 29.7698 1.74913 29.9629 1.89063 30.1069C1.9613 30.1779 2.0453 30.2342 2.13781 30.2727C2.23032 30.3111 2.32951 30.3309 2.42969 30.3309H29.5703C29.7722 30.3287 29.9654 30.2484 30.1094 30.1069C30.1804 30.0363 30.2367 29.9523 30.2751 29.8598C30.3136 29.7673 30.3334 29.6681 30.3333 29.5679V12.9885ZM13.1328 4.82773C12.9118 4.82773 12.6998 4.73994 12.5436 4.58367C12.3873 4.42741 12.2995 4.21546 12.2995 3.99447C12.2995 3.77347 12.3873 3.56153 12.5436 3.40526C12.6998 3.24899 12.9118 3.1612 13.1328 3.1612H18.7292C18.8386 3.1612 18.947 3.18275 19.0481 3.22463C19.1492 3.26651 19.241 3.32788 19.3184 3.40526C19.3958 3.48263 19.4572 3.57449 19.4991 3.67559C19.5409 3.77669 19.5625 3.88504 19.5625 3.99447C19.5625 4.10389 19.5409 4.21225 19.4991 4.31334C19.4572 4.41444 19.3958 4.5063 19.3184 4.58367C19.241 4.66105 19.1492 4.72243 19.0481 4.7643C18.947 4.80618 18.8386 4.82773 18.7292 4.82773H13.1328Z" fill="#00AEEF"/>
</g>
<defs>
<clipPath id="clip0_362_2941">
<rect width="32" height="32" fill="white"/>
</clipPath>
</defs>
</svg>
